<?xml version="1.0" encoding="UTF-8"?><svg id="Layer_1" xmlns="http://www.w3.org/2000/svg" viewBox="0 0 985.56 423.73"><defs><style>.cls-1{fill:#e47e23;}.cls-2{fill:#858989;}.cls-3{fill:#726f6c;}.cls-4{fill:#6a2e0c;}.cls-5{fill:#dd7824;}.cls-6{fill:#c5c2bf;}.cls-7{fill:#fcfcf7;}.cls-8{fill:#f89f33;}.cls-9{fill:#cb8a83;}.cls-10{fill:#fdfdfb;}.cls-11{fill:#db7a28;}.cls-12{fill:#98a078;}.cls-13{fill:#c0bdbb;}.cls-14{fill:#f78671;}.cls-15{fill:#cac6c1;}.cls-16{fill:#e1a462;}.cls-17{fill:#d97729;}.cls-18{fill:#eacab9;}.cls-19{fill:#196fb0;}.cls-20{fill:#63391c;}.cls-21{fill:#f88d36;}.cls-22{fill:#683818;}.cls-23{fill:#742e0c;}.cls-24{fill:#7da548;}.cls-25{fill:#717275;}.cls-26{fill:#db7824;}.cls-27{fill:#593b26;}.cls-28{fill:#de7420;}.cls-29{fill:#d6751b;}.cls-30{fill:#d9d1c4;}.cls-31{fill:#878b8c;}.cls-32{fill:#fefefd;}.cls-33{fill:#b9b8b6;}.cls-34{fill:#a3ba66;}.cls-35{fill:#e27f2d;}.cls-36{fill:#7889a5;}.cls-37{fill:#196eaf;}.cls-38{fill:#d4cbbb;}.cls-39{fill:#5d8132;}.cls-40{fill:#e46450;}.cls-41{fill:#fdfefd;}.cls-42{fill:#fdfbf7;}.cls-43{fill:#d6792e;}.cls-44{fill:#67625e;}.cls-45{fill:#787d7e;}.cls-46{fill:#f29a4e;}.cls-47{fill:#a5735e;}.cls-48{fill:#db7425;}.cls-49{fill:#e0d6cc;}.cls-50{fill:#65391c;}.cls-51{fill:#de7a2a;}.cls-52{fill:#f38670;}.cls-53{fill:#df802e;}.cls-54{fill:#e17b29;}.cls-55{fill:#cdc4ba;}.cls-56{fill:#60331b;}.cls-57{fill:#1a6fb1;}.cls-58{fill:#e17522;}.cls-59{fill:#da6a55;}.cls-60{fill:#ea8574;}.cls-61{fill:#df7121;}.cls-62{fill:#bfbbb8;}.cls-63{fill:#523819;}.cls-64{fill:#d4752a;}.cls-65{fill:#c5c3c1;}.cls-66{fill:#4e3e27;}.cls-67{fill:#e27b27;}.cls-68{fill:#fcfcf8;}.cls-69{fill:#ed695a;}.cls-70{fill:#faf6ed;}.cls-71{fill:#7c8083;}.cls-72{fill:#faf7f0;}.cls-73{fill:#7a8183;}.cls-74{fill:#b4cb92;}.cls-75{fill:#196faf;}.cls-76{fill:#e27a26;}.cls-77{fill:#4e3d34;}.cls-78{fill:#e37e28;}.cls-79{fill:#2d6385;}.cls-80{fill:#7aac41;}.cls-81{fill:#dd7b24;}.cls-82{fill:#7f8589;}.cls-83{fill:#d1d0ca;}.cls-84{fill:#fefefe;}.cls-85{fill:#a9c26e;}.cls-86{fill:#f4b675;}.cls-87{fill:#84898c;}.cls-88{fill:#bcb7b4;}.cls-89{fill:#b4aca1;}.cls-90{fill:#ed964d;}.cls-91{fill:#7689aa;}.cls-92{fill:#583b25;}.cls-93{fill:#dd7521;}.cls-94{fill:#f3b774;}.cls-95{fill:#5b7d34;}.cls-96{fill:#de7a24;}.cls-97{fill:#738baa;}.cls-98{fill:#c2c1bf;}.cls-99{fill:#d6d0c8;}.cls-100{fill:#653618;}.cls-101{fill:#818688;}.cls-102{fill:#78ad43;}.cls-103{fill:#d4ccc5;}.cls-104{fill:#b76f63;}.cls-105{fill:#e07626;}.cls-106{fill:#d4cdc2;}.cls-107{fill:#f79f33;}.cls-108{fill:#fdfdfd;}</style></defs><path class="cls-75" d="M572.65,180.77c34.14,6.66,48.54,45.57,31.17,74.68-13.08,21.92-39.06,27.99-62.8,31.2-14.2,1.92-49.22,6.06-61.61,1.86-11.26-3.82-13.84-15.11-15.6-25.4-7.22-42.35-8.12-87.28-15.16-129.84-3.86-30.37,18.63-31.97,41.63-35.35,37.77-5.55,101.87-12.81,105.39,41.32,1.24,19.07-7.73,31.57-23.03,41.53Z"/><path class="cls-75" d="M874.65,275.78l-7.01-6.37c-11.84-29.41-20.07-63.39-27.47-94.57-1.59-6.7-3.43-20.38.73-25.95,4.65-6.22,40.61-6,40.59,8.26,3.48,22.04,7.87,43.92,13.16,65.63,2.65,5.98,2.86,12.52,5.05,18.45.4,1.06.42,2.4,1.94,2.55l28.53-81.98c4.37-10.16,13.01-10.76,22.97-10,14.93,1.13,21.77,6.47,19.28,22.25-18.69,40.84-31.36,87.56-51.58,127.42-14.9,29.36-39.77,47.24-73.96,38.6-14.16-3.58-19.4-9.29-16.98-24.54,3.44-21.62,21.5-9.68,35.02-11.98,10.63-1.81,18.4-15.11,20.74-24.75-4.46.57-7.44-1.27-11-3.01Z"/><path class="cls-37" d="M714.43,82.07c6.06-.65,18.59.32,23.58,3.86,7.91,5.61,4.67,16.86,4.6,24.31-.17,20.68-.43,41.44-2,62,2.14,20.83-3.4,44.68-.98,65.06,1.22,10.31,11,5.59,14.25,12.75,2.06,4.54,2.83,18.82.64,23.1-4.62,9.05-25.21,8.22-33.67,5.92-28.7-7.8-26.61-40.02-26.25-63.84s2.26-46.73,3.08-69.92c.56-15.69-.75-34.63,1.07-49.93,1.15-9.65,6.56-12.35,15.66-13.33Z"/><path class="cls-57" d="M792.43,84.07c5.8-.54,17.73.72,22.56,3.88,10.2,6.67,5.18,25.14,4.67,35.35-1.74,35.33-5.42,70.66-6.02,105.98-.08,5.01-2.21,9.57.97,15.05,3.64,6.27,12.53.41,14.04,13.96,1.7,15.17-.12,22.85-16.51,24.49-59.87,6.01-41.58-70.89-39.5-106.5,1.44-24.63.98-52.81,4.12-76.88,1.28-9.81,5.74-14.4,15.67-15.33Z"/><path class="cls-19" d="M649.43,143.05c13.35-.13,20.18,3.39,21.26,17.19,2.27,28.99,2.41,62.75,3.01,92,.34,16.85-1.62,26.54-20.5,27.58-16.36.9-24.25-3.63-25.58-20.5-2.57-32.77.78-69.62-.72-102.8,1.77-10.52,13.38-13.38,22.54-13.47Z"/><path class="cls-75" d="M641.39,82.03c15.86-2.5,31.3,3.43,32.29,21.22.84,14.99-7.88,24.16-22.54,25.52-36.38,3.39-38.11-42.28-9.75-46.75Z"/><path class="cls-79" d="M894.65,222.78c-5.79-13.05-10.65-45.07-13.74-60.76-.76-3.87.26-4.97-1.95-8.98-3.26-5.89-8.02-4.37-12.77-5.29-3.88-.75-5.39-2.82-11.11-2.03-1.86.26-1.31,1.86-2.12,2.05-2.75.65-6.62-.51-9.58.07-3.37.66-5.24,10.43-4.81,13.52.26,1.85,1.86,1.31,2.05,2.12.64,2.73-.41,6.67.07,9.76.84,5.32,4.27,12.92,5.67,18.33,5.55,21.41,9.95,40.86,16.01,61,1.24,4.12,2.46,10.83,4.64,14.89,1.12,2.08,7.24,5.08,7.63,8.34-9.6-4.67-10.37-10.44-13.5-20-8.04-24.59-19.02-62.79-23.06-87.94-2.87-17.93.84-24.13,20.05-24.12,12.65,0,22.76,3.12,25.25,16.81l11.25,62.25Z"/><path class="cls-84" d="M526.45,203.08c15.1-1.1,32.38-1.18,36.93,16.48,8.31,32.27-30.91,31.47-52.11,32.99l-2.59-3.3-4.77-42.02c.14-.77.75-1.05,1.42-1.28,4.07-1.39,16.34-2.53,21.12-2.88Z"/><path class="cls-41" d="M496.7,132.83c19.1-3.17,54.56-10.86,51.98,19.5-1.78,20.91-32.93,19.14-48.1,19.02l-3.89-38.52Z"/><path class="cls-50" d="M92.65,180.61c13.22,7.44,25.98,16.43,41,19.99-8.56-8.38-19.05-16.2-23.01-27.99-.9-.67-10,5.05-10.98,4-3.19-3.43,8.62-6.54,9-7.01.51-.64-5.13-13.04-4.01-15.99-3.3.43-7.26,1.87-10.52,1.99-6.51.25.88-3.9,3.47-4.54,1.72-.43,5.84-.23,6.07-.44.58-.55-.85-13.46.99-16-2.57-.26-15.01-.97-15.99-2.02-1.87-2.01,3.68-2.78,4.61-2.86,2.92-.28,10.43,1.21,11.45.46.82-.6,3.62-13.03,4.48-15.54,1.18-3.42,4.78-9.19,5.28-11.79.67-3.55-4.18-19.95-4.81-25.76-1.47-13.71-.84-39,5.78-51.19,8.98-16.55,37.3,3.75,47.1,11.31,2.42,1.86,12.23,11.27,13.63,11.41,24.71-7.66,50.13-8.03,74.85-.24,12.65-10.34,28.34-24.33,44.61-28.28,7.09-1.72,10.86-2.06,15.44,4.57,5.75,8.32,8.15,35.14,7.56,45.42-.4,6.93-6.15,28.86-5.53,32.52.52,3.04,4.25,9.86,5.55,13.48.86,2.41,3.49,13.97,4.12,14.38,2.15,1.39,13.06-2.46,16.87.14,3.06,3.37-14.13,4.09-16,3.99v15c18.67,3.05,17.47,8.5-.99,4,.7,4.43-3.96,11.52-3.07,15.34.12.5,5.9,3.11,7.18,4.09.78.59,2.6.26,1.87,2.06-1.53,3.78-9.25-3.2-11.94-2.47-5.52,15.45-19.16,25.44-32.04,34.49,1.01.59,2.84,1.18,4,1.49,7.46,3.81,15.76,5.06,24,6.08,4.12,2.66,1.33,12.6-2,14.92-1.18,5.16-2.51,6.16-4,3-1-3.24-.34-6.92,2-11.02-1.11.14-1.59-.97-2-1.98-3.65,1.95-10.52,1.22-13-3-2.32,2.59-9.99.19-11-3-.99,1.38-3.11,1.4-6.34.06-4.1,1.97-7.32,2.28-9.66.94-2.21-3.8,4.23-7.09,8.07-8.68l.93-1.32c-.31-.71-.64-1.71-.18-2.16s10.32-7.43,10.98-7.81l2.2-.03c.28-.87.62-.86,1,0l1.11-2.94c3.94-1.57,19.57-17.94,18.4-20.84-2.46-.36-3.63-1.43-3.5-3.22-1.81,2.62-13.94-2.31-14.73-3.49-5.4-8.18,11.37-5.69,13.73-1.51l1.87-1.47c5.35,3.91,8.05,1.59,8.09-6.94l2.04-1.6c-.1.77-.3,1.9-.87,2-1.47.25-16.03.3-17.24,0l-1.4-2c-1.6,2.79-5.12.24-4.33-3.12.73-3.13,13.61-5.19,14.83-1.88h2c8.39,1.13,8.46.47,7-8-7.63.47-15.24,1.65-22.83,3.55-4.99-8.32,9.52-10.16,15.83-10.55l1.11-1.93c4.02.28,4.18-3.07.49-10.04l1.4-2.03c-3.58-5.31-8.3-13.13-7.13-20.27,2.06-7.22,3.44-16.12,4.03-24.09,1.17-15.68,1.49-30.96-6.28-45.24l.37-3.41c-17.71,6-33.5,15.79-47.37,29.39l-3.87,2.38c-25.52-8.61-51.79-8.55-77.36-.2l-4.63-2.97c-13.82-14.02-29.4-23.22-46.76-27.6.48.69.71,1.49.33,2.25-9.51,19.27-7.61,43.3-1.75,63.58.1.75.27,9.12.15,10.08-.09.7-4.59,12.38-5.01,13.12-.35.61-1.09.83-1.72.97l1.32,2.23c-4.1,8.15-3.93,12.05.53,11.71l1.15,2.06c3.87-1.03,20.71,4,14.84,9.02-2.03,1.73-15.12-.66-16.84-4.02-.84,1.58-1.17,1.49-.98-.28-5-.99-6.26,9.69-.85,9.67,6.26-.98,12.47-.9,18.61.22,4.7,2.99.23,9.49-3.28,5.39-.1.77-.3,1.9-.87,2-1.47.25-16.03.3-17.24,0l-1.4-2c.48.02.94.09,1.34.28,1.21.58,1.95,10.56,1.66,11.72,5.96-2.08,12.02-4.07,18.19-5.97,15.38,1.23-1.6,12.45-8.19,8.97.23,1.83-1.25,2.93-4.43,3.28,3.63,8.8,10.73,15.49,18.13,21.24l1.3,3.48c3.35-.15,6.78,1.36,10.3,4.54,4,1.51,6.56,3.66,7.7,6.46,6.07,4.36,11.58,7.76,19.4,7.19,5.73,1.43,2.65,21.47.19,21.32-.54-.03-1.07-.25-1.59-.51-2.26-5.45-2.69-10.35-1.29-14.69-11.18-1.55-21.41-4.99-30.71-10.31-2.54,1.39-5.85.77-7-2-9.73,1.83-45.26-15.52-47.62-22.84-.22-.69-.32-1.42-.38-2.16-1.53-4.06,3.51-5.95,5-2Z"/><path class="cls-20" d="M61.65,210.61c.68-.8,1.4-.83,2,0l4.49,2c18.15,20.22,41.23,35.47,66.09,44.09.63-2.54,1.77-3.9,3.42-4.09-2.08-7.15,7.2-16.29,8.02-5.84.23,2.95-.83,13.64-4.02,13.84-.64,14.33-2.97,28.33-7,42l1.93,2.99c-.18,9.34.9,18.61,2.54,27.79l-1.47,3.22c4.22,3.41,4.95,12.49,4,17,2.97.52,3.14,1.97,1,4,4.01,2.93,7.87,10,7,15,2.98-.14,4.2,2.44,3,5,.87.28.86.62,0,1l-.03,1.36c-6.3,2.51-9.25,17.4-1.97,6.17,4.84-6.08,10.84,1.63,4,2.48-.19,5.89.54,7.96,6.81,7.87-.26-2.39.47-3.68,2.19-3.87-3.26-1.33,2.58-7.7,4.32-7.42,3.26.51,4.21,4.9.68,5.42.64,5.1,1.3,6.08,7.19,4.72,9.78-2.26,13.51-6.21,15.51-15.97l2.31-.75c-.86-.27-.85-.6,0-1-.44-6.32.49-12.74,2.82-19.26l-8.85-3.73c-5.53-2.23-5.76-7.79.65-7.88,17.46,5.6,35.34,5.17,52.87-.31,10.37,1.91-3.94,11.28-9.01,11.84,1.9,6.95,2.74,13.74,2.53,20.35l2.26.72c.76,11.97,10.28,15.72,20.83,17.06-.28-1.54.2-2.37,1.91-2.77-2.89-2.25-3.85-7.98.54-8.88,1.22-.25,7.84,6.3,4.46,7.88l1.39.24c.31,3.51,2.72,3.93,6.07,2.61.43-.17,2.2-4.95,1.53-5.85-5.91-3.89,1.63-8.46,5.61-1.67,3.38,7.05,3.22-2.03.32-4.81-2.72-1.1-4.03-2.6-3.93-4.52-1.54-2.5,1.01-7.75,4-8-2.11-2.06.94-8.42,4-8-1.28-5.01-.28-8.35,3-10-1.84-4.36.38-12,4-15l-1.45-3.15c2.13-11.2,2.47-22.58,1.64-33.93l1.81-2.92-2.15-1.95-2.43-18.62c1.33-.47,1.96-1.23,1.58-2.42l-2.46-2.08c-1.48-4.67-6.33-26.02-3.63-28.92,3.55-3.81,11,6.94,7.08,10l2.51,1.04c.22,5.49,6.04,10.5,3.44,1.73-.67-2.55.01-4.14,2.05-4.77l-1.76-1.58c1.92-5.93,4.4-11.63,7.44-17.11l2.32-.31c2.28.57,2.21-2.1,4-3,.98,1.04.98,2.7,0,5,.52,1.45.19,3.12-1,5,1.86,1.91,1.23,4.54-1.88,7.87,1.96,2.69-2.85,7.99-2.33,4.49l-.79,1.63c2.39,2.56,2.39,4.23,0,5,5.28,4.71,6.47,8.96-2,10-2.33.07-4.68-.06-7,0,.75,8.23,3.17,16.28,3.99,24.51,2.29,22.88-1.51,47.32-8.97,69.01-1.02,2.97-5.68,11.29-5.85,13.15-.12,1.4,3.75,5.97,4.35,8.3,6.66,25.75-41.01,25.31-53.52,12.53-8.13-8.31-9.16-25.54-12.1-36.39-6.12-.46-12.37.69-18.33-1.14-5.31,15.58-3,35.9-21.3,42.81-12.53,4.73-41.54,6.73-44.85-10.73-1.43-7.54,4.88-12.13,4.44-15.3-17.43-34.53-19.4-73.56-9.87-110.73-21.1-6.51-41.21-18.25-58-32.51-4.01-3.4-14.02-12.24-15.99-16.51-4.87-1.68-2.59-7.42,2-5Z"/><path class="cls-92" d="M288.65,208.61c4.01,1.08,23.59,6.24,25.84,4.83,2.93-1.83,19.38-47.98,24.31-54.18,6.27-8.36,15.11-3.17,22.82-.12,13.9,5.5,31.06,12.95,44.39,19.61,7.69,3.84,14.45,5.58,12.4,16.13-1.11,5.72-9.52,18.71-9.57,23.43-.02,1.63,4.1,5.02,5.21,7.41,6.38,13.73-3.96,39.12-19.33,42.45-2.25.49-7.08.1-7.91.6-3.49,2.13-6.9,26.83-18.17,23.44l-54.17-22.91c-3.84-1.06-7.9-.8-11.82-.68,7.36-3.45,2.94-5.04,2-10h4.14c9.94,4.7,20.06,9.04,30.34,12.99,3.58,1.92,29.32,14.87,32.4,12.86,3.68-2.4,12.47-32.8,1.16-7.92-4.59,5.09-16.08,1.44-17.05-4.93-3.13-1.95-5.4-3.66-1-5-2.62-1.84-1.27-8.96,2-9-2.47-2.58.14-3.98,3-4-1.9-2.55.59-10.03,4-10-2.26-1.98-.79-4.02,2-4-2.65-1.8,1.08-8.35,4-8,.96-3.05,3.96-3.72,9-2-2.33-2.34,1.79-9.99,5-8-1.11-2.98,1.22-4.32,7-4l.98-2.27,10.9-1.31c.45-1.76.98-3.59,1.82-5.21,2-3.83,3.95-7.78,5.68-11.74,1.12-2.55,2.4-6.61,2.61-8.47l-.72.89-60.09-26.65c-5.41-2.86-8.47-.75-10.42,4.38-9.96,22.35-19.87,44.71-29.71,67.09l-1.05.29c.28-1.47-.22-3.45,0-5,.32-2.19,1.92-4.14,2.06-7.48.43-10.13-3.43-6.21-9.51-7.57-4.35-.97-11.35-2.86-14.55-5.95Z"/><path class="cls-27" d="M92.65,180.61c-2.36-.27-3.97-.33-5,2-.63-.04-.96-.37-1-1l-2.14-1.34c-.7-4.99-2.69-9.75-5.67-13.8.26,4.47-.8,8.18-3.18,11.14-1.56,6.12-6.6,1.91-9.51-1.1-2.64,2.72-7.78,7.77-9.49,2.1-1.29,1.69-2.92,1.12-4.91-1.72-2.7,3.12-8.7,7.38-10.09,1.72-2.74-1.67-5.07-1.01-7,2,2.33,1.52,1.54,2.74-1,3,3.09,12.65,13.83,22.51,26.8,23.96l1.2,2.04c.87.28.86.62,0,1-.74.09-1.69-.44-2.09.6-.93,1.89-.7,2.69.09,4.4-11.4-1.25-29.71-12.88-31.76-24.74-.99-5.72,2.63-13.12-3.28-15.79-3.43-1.55-11.96,7.96-11.96,3.03v-92.5c3.66-1.42,7.01,3.99,9.5,3.99,2.36,0,4.8-4.34,7.95-4.04,2.51.24,4.48,4.78,7.84,3.92,1.91-.49,3.67-4.38,5.35-4.71,2.87-.56,5.57,4.89,7.86,4.88,2.44,0,5-6.12,10.48-3.54,1.46.69,2.36,3.54,4.52,3.54,2.57,0,3.41-4.8,7.97-4.09.85.13,2.53.9,2.53,1.56v67c0,.74,8.9,7.11,10.84,10.16,3.14,4.94,3.63,10.86,5.16,16.34Z"/><path class="cls-8" d="M283.65,36.61c4.86-2.59,8.39-1.52,4,3,2.94,2.4-4.5,9.24-7,7-5.02,5.15-9.87,11.34-11.45,18.27,9.25,9.4,18.64,18.49,28.19,27.26,8.68-5.21,13.32-4.33,8.14,6.19.24,6.5,1.94,12.93,5.12,19.28l-.95,1.84c-7.86.72-15.84,3.36-22.45,7.7,6.68,2.02,13.53,3.12,20.57,3.3l1.84,2.16c-1.67.95-18.64,5.11-14.99,9,.75.8,15.23-5.54,21.37-4.04,1.23.24.42,1.53.63,2.04.43,1.07.87,8.45.31,8.48l-7.31-.48c-.67,0-1.33,0-2,0,.33-.78.36-1.4-.28-1.48-3.39-.46-18.77.65-19.71,4.29-.48,1.85,16.94,7.32,19.14,7.75,2.29,2.59,1.28,5.43-2.15,4.44-2.92-.7-7.71-2.03-10.48-2.03-.87,0-3.5-.4-2.51,1.52.74,1.43,11.46,4.54,13.99,5.51.71.54,1.04,1.23.89,2.08l-14.58,12.79c-.56,3.11-.63,6.27-.21,9.48l-2.1,2.65h-1l-1.85-1.58c.62-5.09.57-9.9-.15-14.42l-2.66-1.25c-3.42-8.54-10.24-14.37-18.86-17.23-10.07-2.22-19.15-5.93-27.23-11.15-12.59-19.68-34.84-21.02-47.4-.18-8.67,5.42-18.22,9.43-28.66,12.03-8.79,3.12-15.56,9.42-18.6,18.37l-2.59,1.4c.03.94-.04,1.31-1,1-5.65.36-16.19-8.17-16-14,2.41-.86,11.71-3.83,12.51-4.99.66-.96-.49-1.73-1.13-1.9-5.12-1.38-14.02,3.78-19.41,4.51-1.7.23-1.02.26-1.97-.61-1.23-2.13-1.19-3.44.13-3.91,3.44-.62,25.4-8.34,25.68-10.07.84-5.19-23.71-4.5-26.67-3.58-2.28-1.05-2.18-13.36,3.86-9.45,5.37.93,10.59,2.32,16,2.99-1.16-5.94-9.7-5.42-14-7.99l1.05-2.06c4.35-.37,8.7-.74,12.98-1.57,1.49-.29,5.13-1.11,5.92-2.13,1.08-1.4-16.52-8.31-18.87-7.98l-1.08-2.25-1.47-.83c4.32-7.64,5.78-15.46,4.39-23.45,2.69-1.3,6.14-1.62,10.38-.94,6.34-7.56,13.24-14.49,20.7-20.77l-.83-1.12c3.48-3.66,3.4-7.83-.26-12.51l1.09-2.37c-7.95-10.69-7.28-14.03,2-10,.42-1.87,1.46-2.1,2.95-1.05l16.49,14.76c2.28-1.17,4.61-1.72,6.55.29l2.1.68c.62,4.75,14.22,32.58,12.98,14.85-.5-7.21-.86-13.39-1.07-18.52.36-3.19,7.88-3.95,9-1l2.22,3.12c.28,13.54,6.66,60.33,14.12,19.54l2.44-21.52,2.22-1.14c.64-2.88,6.74-3.15,7,0l1.69.72c-.65,8.47-.6,16.88.16,25.23,4.85-6.44,8.75-13.64,11.69-21.58l2.47-.38c1.26-1.08,3.49-1.55,6.69-1.41l23.14-19.27c2.58-2.42,4.64-2.86,6.18-1.32Z"/><path class="cls-107" d="M106.65,200.61l1.53,2.14c-2.44,11.47.58,10.5,6.98,2.83l2.49.02c2.69-2.06,10.77,1.81,11,5q2.51,2.96,0,0c-1.18-2.81,1.15-3.81,7-3,2.3.72,4.68,1.29,7,2,8.66,7.31,18.68,12.95,30.08,16.91.81,2.65,1.45,5.35,1.92,8.09.88.25.86.58,0,1-.65,4.18-2.65,7.85-6,11l.89,3.1c-19.83,41.91-3.61,88.47,48.1,85.38,52.46-3.14,59.1-51.02,38.05-90.37l.96-3.11c-2.11-1.04-3.11-3.38-3-7-2.53-1.11-2.52-1.84,0-3l1.13-4.2c9.31-4.56,18.6-9.16,27.87-13.8,4.17.91,7.24,2.05,11,3l1.8,1.57c-1.24,16.87,2.85,19.39,7.44,1.22l3.76.21c1.15.22,5.01-.57,5.01.51-2.05,4.01-3.29,8.37-5.01,12.49-2.22,5.32-7.36,13.54-8,19-.24,3.05-6.39,4.77-8,2-1.32-3.21-1.85-8.82-5.99-8.99-.21,10.18,3.1,20.03,4.99,29.99l.13,1.95c-.82.28-10.82,10.16-11.06,11.56-.23,1.31,10.73,6.47,12.55,6.92l1.37,2.57c1.06,15.28.94,24.71-2,40l-1.24,1.99-9.98,1.9c-10.48,1.53-8.13,4.4,7.05,8.62l.17,2.48c-.98,3.28-1.76,6.81-3,10-1.63,1.36-2.71.7-3.24-1.97-13.39,1.21-16.21,3.61-1.99,8.19l1.23,1.78c-1.33,2.65-1.82,5.67-4,8l-1.99,1.52c-4.78-.74-9.6-.61-14.44.38l-1.57-1.9c-5.88.75-11.58,1.45-17.1,2.09l-1.9-2.09c-3.76-5.21-4.85-13.75.45-18.62,1.18-.88,17.2-18.92,15.88-19.14-26.33,13.52-56.43,11.89-82.91-.48,3.25,6.86,8.03,12.83,14.36,17.92,4.55,4.64,6.64,10.62,4.91,17.08,1.51-.13,2.03.69,2.3,2.24-.09.31.09.69,0,1-7.32.94-14.74,1.6-22,0-.19.89-.52.86-1,0-5.95-1.35-12.05-1.19-18-1-1.53-1.35-2.08-3.29-3-5l-.48-2.22c14.3-6.61,12.92-9.94-4.14-9.98l-2.39-2.8c-.54-1.53-.62-2.77-1-4-.57-1.71-.57-3.26,0-4.66,14.42-2.2,16.91-4.55,7.49-7.06l-9.88-2.86-1.61-2.41c-2.18-12.23-3.43-21.38-3-34,.34-2.95.92-5.84,1.74-8.69,5.64-.97,10.09-2.99,13.35-6.06-8.68-6.6-9.08-12.43-7.7-22.51l-.39-4.74c.43-2.09,2.57-15.44,1.99-16-3.03-2.98-5.54,6.76-5.99,8-3.42,1.01-3.33-1.97-2.28-4.71l-14.9-3.78c-4.44-1.83-5.77-6.57-3.98-14.22-3.35,3.14-6.71,6.16-10.09,9.08-1.01.1-17.1-9.23-15.31-11.87.38-1.14,3.5-13.58,2.6-13.27l-9.28,6.61c-4.56,2.21-12.99-5.83-13.77-9.83-2.27-1.61-.63-3.47,4.92-5.59,2.69-2.03,6.01-5.19,7.08-8.41,2.12-2.35,3.6-5.1,4.46-8.24,6.27,2.96,12.51,6.19,18.7,9.69l.84,2.55Z"/><path class="cls-63" d="M275.65,204.61c2.1.58-1.17,2.52-1.66,2.83-1.06.68-3.38,1.26-3.88,2.12-.44.76.86,2.66.54,2.99-.35.36-3.72-.15-4,2.06l-.88,2.38-10.14,3.69c.56,4.04-.1,7.68-1.97,10.94-.08.98.13,2.04,0,3,1.96,2.37-1.43,9.96-3.23,12.04-6.46,7.47-23.08-1.82-28.78-6.86-4.9,2.19-10.1,2.18-15.59-.03-11.19,8.28-26.74,16.65-32.53-1.29l1.13-2.85c-.06-.32.05-.67,0-1,2.42.04,2.84-16.25,2.48-17.06-1.86-4.21-9.38-2.06-12.46-3.46l-8.02-7.48,2.2-1.21c5.15,2.38,10.48,4.19,15.98,5.42,4.66-7.64,11.58-6.37,19.04-4.1l10.9,6.79c6.19-2.39,11.93-2.37,17.21.06l13.09-6.6c7.31-2.46,13.44-4.24,18.09,3.68l20.45-7.31,2.05,1.27Z"/><path class="cls-83" d="M288.65,194.61c-.42,2.74-10.06,8.55-13,10s-20.44,8.05-22.57,7.98c-2.95-.1-2.49-6.58-10.65-5.77-6.62.66-18.9,8.71-20.28,8.75-1.55.04-3.92-1.95-6.99-2.06-3.51-.12-8.76,2.41-10.81,1.93-3.88-.92-9.51-8.34-18.34-8.78-7.76-.39-8.71,5.9-10.86,6.05-3.49.24-14.82-4.42-18.51-6.11-5.92-2.72-12.71-7.11-18-11-3.02-3.61-3.15-11.5,1-14,.07-.31.9-.69,1-1,35.27,29.18,88,29.02,129.57,11.22,4.6-1.97,14.95-6.46,14.67-11.96l1.76-1.26c.29.77,1.6,1.24,1.95,3.52.4,2.61.44,9.88.05,12.48Z"/><path class="cls-86" d="M303.65,25.61c.18.91.11,1.8-.33,2.62-.86,1.61-16.61,7.72-19.67,8.38-5.92.96-21.78,17.94-27.62,21.87-3.13,2.27-5.47.76-8.38.13-3.9,2.35-13.16-.59-16-4-2.15-.3-4.75.19-7,0-2.52,1.82-6.02,2.3-10.5,1.44-4.46.84-7.96.36-10.5-1.44-3.47.31-5.6.45-9,1-2.67,3.47-10.23,5.34-14,3-2.37.49-4.6,1.07-6.94,1.55-6.06-4.21-10.73-10.15-16.55-14.61-1.02-.78-2.24-.74-2.51-.94-5.7-1.85-11.06-4.77-16.11-8.74-5.98-2.33-10.94-5.42-14.89-9.26,4.66-2.76,17.68,4.05,22.67,6.83,10.65,5.94,19.1,14.87,28.95,21.9,25.77-8.72,51.2-8.78,76.94.2,15.84-11.57,30.61-28.3,51.43-29.93Z"/><path class="cls-90" d="M154.65,44.61c-3.81.25-7.19-1.62-5.96,3.28.2.8,3.45,2.49,3.65,3.01.6,1.51.08,3.17.31,3.71l-3.07-.5c-5.77-8.34-12.75-14.84-20.93-19.5.86,1.59,1.19,3.65-1,4l.35,3.5c-8.04,14.79-7.62,35.11,1.65,48.5,5-7.57,11.91-14.64,20.73-21.2l2.27,1.2c-3.27,4.83-6.02,6.36-10.07,10.45-1.37,1.39-9.48,10.98-10.19,11.25-2.6,1-7.94-.74-9.31,1.23-1.67,2.41.57,6.71.34,9.34-.49,5.65-6.4,7.9-4.79,13.73-.46,2.78-2.05,2.58-3,0,1.27-3.61,5.81-12.79,5.84-15.48.08-6.71-5.22-21.13-5.83-30.03s.08-39.8,7.99-44.49c5.02,2.05,9.91,4.2,14.67,6.83,5.74,3.18,11.23,7.43,16.33,11.17Z"/><path class="cls-46" d="M312.65,118.61c1.22,4.25-4.92,2.28-2-1-3.71-6.39-7.29-11.65-5.95-19.45.38-2.23,3.04-4.43,1.94-7.54-4.25.79-7.02,3.3-11.74,1.69-1.16-.4-14.53-15.24-17.04-17.64-3.59-3.43-10.83-6.9-9.18-13.36.18-.71,1.56-.55,1.89-1.45,3.69-10.03,2.96-7.07,10.07-13.25l.71,2.68c-3.54,5.13-6.91,10.18-10.13,15.15,9.81,6.72,18.99,14.96,25.31,25.17h1.11c-1.12-1.56-.2-2.6,2.77-3.09,3.38-3.23,5.54-29.49,4.47-34.71l-2.22-2.88c-.05-4.39-1.06-8.82-3.02-13.31-1.42,1.34-1.96.75-1-1-3,1.53-5.78,3.43-8.35,5.68l-2.65-.68c.42-.83.38-2.14,1-2.99-1.59.15-3.49-.26-5,0,5.44-5.02,13.91-6.64,20-11,11.48,19.13,9.61,42.93,5.53,64.03-.56,2.9-3.46,9.88-3.46,11.46,0,1.43,5.81,14.14,6.93,17.5Z"/><path class="cls-64" d="M116.65,137.61c-5.24-2.11-3.38,7.61-3,8.01,1.05,1.09,25.83-5.07,27.94,5.38-.57,3.33-20.92,9.61-24.96,11.15-1.55.59-3.57-.29-2.98,2.47-2.23-2.07-2.95-8.96-3-12h19.5c2.7,0,5.54-2.69,1.82-3.82-6.98-2.11-15.23-.41-22.32-.18l1-12c2.38-.89,4.49.74,6,1.01Z"/><path class="cls-58" d="M310.65,117.61c.81.27,1.08,3.63,2,1,1.9,5.74,7.56,14.96-3,14-7.19-.65-16-.91-22.99-3.55-1.28-.48-2.44,0-2-1.94,1.78-4.22,22.08-10.81,25.99-9.51Z"/><path class="cls-105" d="M118.65,116.61c10.6,1.92,36.99,11.37,10.48,14.98-2.39.33-8.5.96-10.48,1.02-1.39.04-6.93-.61-7.07-1.58.27-5.12,2.45-9.8,4.07-14.42.96.11,2.1-.16,3,0Z"/><path class="cls-17" d="M304.65,162.61l2.02-2.52c-3.37-.87-21.68-5.57-20.94-9.84,1.23-7.13,22.55-6.16,27.92-4.63l-5.99,1.99c-1.95-.7-15.37.66-13,3.99.99-.29,2.1,1.01,2.5,1.01h19.5c.05,4.24-1.03,8.79-2.96,12.59-1.48,1.04-7.22-2.16-9.04-2.59Z"/><path class="cls-35" d="M123.65,167.61c4.27,5.72,10.18,9.98,16,14-1.04,4.63-1.2,9.27-1,14-8.91-6.55-18.59-15.2-22-25.98.47-.64,5.87-1.62,7-2.02Z"/><path class="cls-51" d="M305.65,167.61c1.35.52,6.63,1.42,5.9,3.39-2.93,7.89-14.41,19.82-21.9,23.61.48-3.86-.95-9.47.52-12.98,1.06-2.52,13.17-10.68,15.48-14.02Z"/><path class="cls-11" d="M142.65,209.61c10.53,3.22,21.31,6.06,31.89,9.1.04,5.26-.65,10.64.11,15.9-1.72-.03-.32-3.63-1.98-5.52-4.16-4.71-27.7-8.35-30.02-19.48Z"/><path class="cls-78" d="M282.65,213.61c.38,2.35-2.75,3.23-4.34,4.15-3.97,2.32-8.19,4.64-12.29,6.72s-10.73,2.99-12.37,7.13c.36-4.24-.4-8.63.13-12.87,4.38-.71,8.87-2.98,12.87-4.13,2.57-.74,7.69-2.83,9.57-2.93,2.91-.15,4.54,1.52,6.43,1.93Z"/><path class="cls-94" d="M87.65,182.61c13.76,12.91,30.28,19.48,48,25-1.55,1.83-6.23.53-7,3-2.26-.66-7.92-3.74-11-5-2.19,2.47-11.38-1.7-11-5-2.37-1.11-5-1.93-7.32-3.18s-10.92-8.74-12.68-6.83c1.19,4.63-2.11,4.42-4,6.01-1.6-1.97-1.1-5,1.5-9.1,0-2.94.83-4.9,2.5-5.9.36.31.66.68,1,1Z"/><path class="cls-67" d="M306.65,219.61c-2.67-.57-1.98,1.33-2.47,2.98-6.32,21.27-13.04,9.91-10.53-5.98,4.11,1.03,8.88,2.2,13,3Z"/><path class="cls-17" d="M316.65,139.61c1.3,3.27,1.2,5.43,1,9l-8-1c2.33,0,4.68,0,7.01,0v-8.01Z"/><path class="cls-3" d="M309.65,239.61l30.77-70.29c2.18-7.11,5.82-9.34,10.9-6.68,19.88,8.7,39.77,17.51,59.67,26.44l1.66-.48c1.74,1.25.95,3.3.57,5.06-1.55,7.2-7.55,14.49-9.06,21.96-4.44,1.71-8.42.64-13.52,1.98l-6.29,1.11c-15.89-7.23-31.98-13.9-48.26-20.01l-22.51,51.03c.95,3.97,4.73,6.45,11.32,7.44l.73,2.42c.17.96.01,2.07-.83,2.37-1.57.56-18.55-4.17-19.27-5.18l-.9-3.19c0-.15-1.03-.64-1.07-1.38s1.91-.55,2.42-1.87-.22-3.02-.12-3.25c.79-1.84,3.04-4.29,3.77-7.49Z"/><path class="cls-53" d="M193.65,377.61l-5.01-.51c5.52-14.73-7.84-19.2-14.81-29.16-2.38-3.4-4.42-6.98-4.16-11.33,27.47,14.72,61.46,16.72,88.48-.01.41,3.25-2.84,7.63-4.68,10.32-3.13,4.59-14.64,15.11-15.6,18.4-1.59,5.46,2.02,8.69.78,13.29-.99,2.75-3.02,2.79-4,0-2.15-7.27-3.81-14.48-5-21.97,1.96.5,15.58-5.8,13-8.02-4.69-1.04-8.62,2.03-12.75,2.74-7.55,1.31-17.09,1.87-24.73,1.24-3.43-.28-17.05-4.18-17.93-3.95-8.23,2.15,11.08,7.71,11.35,8.59-1.29,6.89-2.98,13.66-4.93,20.38Z"/><path class="cls-48" d="M70.65,210.61c2.4.57,9.69,8.71,11.5,8.71,1.39,0,10.35-8.02,11.98-7.71,4.73.9-1.99,15.46-1.04,17,1.65,2.66,11.17,4.97,13.06,8.99,18.85-22.94,10.21.63,11.91,3.05,1.88,2.67,19.05,4.1,19.47,6.53.24,1.35-2.04,3.75.11,5.44-.74,1.99-.6,5.98-3.45,6.02-2.49.03-19.8-8.05-23.22-9.84-18.04-9.46-33.94-22.96-47.33-38.17,1.59-1.18,6.81-3.03,7,0Z"/><path class="cls-44" d="M325.65,259.61c8.96.59,19.97,5.32,28.03,9.73.82.45,1.43,1.3,1.97,2.27,2.27.96,4.7,3.86,6.95,4.54,10.84,3.28,8.57-3.65,12.65-9.43,3.07-4.35,5.95-.68,4.94,3.89-.29,1.33-6.81,14.78-7.44,15.36-2.98,2.74-19.7-5.44-23.78-7.18-3.64-1.55-7.01-3.79-10.65-5.35-11.25-4.83-23.1-8.76-33.68-14.82-.26-1.39.07-3.43,0-5,2.61,3.37,5.37,2.32,8.25,3.25,3.67,1.2,8.9,4.65,12.75,2.75Z"/><path class="cls-68" d="M275.65,378.61c1.32.42,5.22,2.69,6.03,3.74,2.58,3.37,3.45,11.5-2.02,12.26.16-4.11-2.83-6.43-5.51-8.99-.89.51-.6,3.03-.5,4,2.76,6.41-6.56,6.73-9,3-.21-.88-4.47-7.23-6-5.99,1.28,2.28,1.03,4.51,1,6.99-2.06,3.24-9.14-.06-12.07-1.78-3.56-2.09-11.06-8.32-7.15-12.02,5.93.39,11.67-.01,17.22-1.2,6.43-.33,11.06-2.21,18,0Z"/><path class="cls-7" d="M170.65,378.61c.33,0,.67,0,1,0,5.8,1.05,11.66,1.27,17.6.67,4.43,3.53-7.07,11.58-10.67,13.16s-12.24,4.61-9.93-1.83c.14-.87.37-3.53-.49-3.99-1,1.03-4.28,5.05-4.51,5.99-2.31,4.24-11.85,2.39-9-4,.03-.52,1.46-1.76,1-2.99-1.44-1.47-8.27,6.47-7,8.99-8.03-2.78-3.16-14.75,4.01-16,5.67-1.62,11.67-1.62,18,0Z"/><path class="cls-89" d="M412.65,188.61c.35,3.13-.81,2-2.71,1.22-17.79-7.26-35.73-17.11-53.61-24.39-3.13-1.27-7.74-3.78-11.01-2.68-4.28,1.44-29.51,68.78-35.66,76.85.37-1.62.69-3.36,1-5l31.57-70.93,4.16-3.92,66.28,28.85Z"/><path class="cls-54" d="M141.65,260.61c3.93,5.25.7,12.36,2.45,18.05,1.32,4.3,7.99,5.77,7.6,9.39-.62,5.84-14.34,6.11-15.89,8.71-.8,1.33.84,4.77-1.16,5.85.55-15.98,3.91-27,7-42Z"/><path class="cls-1" d="M292.65,297.61c-3.24-.89-16.06-6.21-16.04-9.5.01-2.17,10.31-10.16,10.05-14.5,1.04-.7,2.96,6.21,2.99,1,1.69,8.88,2.37,13.93,3,23Z"/><path class="cls-38" d="M193.65,378.61c-2.42,8.02-3.04,13.36-11.63,16.87-3.41,1.39-13.45,4.65-14.41-.41-.49-2.56.88-3.43,1.04-4.45-.5,3.02,1.29,2.05,3.23,1.75,3.77-.59,8.9-2.72,11.8-5.21,1.04-.9,7.46-8.13,3.64-7.38-5.27,1.04-10.74,1.52-15.68-1.16,7.32-.02,14.68.02,22,0Z"/><path class="cls-103" d="M238.65,378.61c7.21.36,11.7.38,19,0-4.84,3.84-11.51.85-16.99,2.49,2.88,8.04,11.02,11.28,18.99,12.51-.02,1.16.43,4.97-.51,5.02-7.49-1.07-17.71-3.03-21.69-10.31-1.63-2.98-1.87-6.57-2.8-9.7,1.33.04,2.67-.07,4,0Z"/><path class="cls-96" d="M290.65,337.61c-1.01,5.27-2.48,9.91-4,15-2.63-2.5-17.51-4.14-15.94-9.41.72-2.4,16.7-5.98,19.94-5.59Z"/><path class="cls-76" d="M137.65,336.61c3.35.65,19.49,4.88,19.96,7.6-1.77,4.92-9.07,5.38-13.53,6.37-2.57.57-2.75-.94-2.42,3.03-1.94-6.31-2.85-10.53-4-17Z"/><path class="cls-5" d="M142.65,357.61c2.61,1.66,16.87,1.85,17.88,3.11,3.85,4.77-8.58,9.44-10.88,11.89-2.66-4.94-5.13-9.67-7-15Z"/><path class="cls-26" d="M279.65,370.61c-3.79,1.42-14.11-4.54-12.99-8.46.47-1.66,13.67-3.86,15.46-3.56,1.15.19-.14,3.51,1.53,4.02-1.35,3.48-2.52,5.05-4,8Z"/><path class="cls-43" d="M298.65,251.61c-.52,4.41.16,7.11,1.99,10.99-9.2,1.64-7.4-2.69-9.99-8.99l8-2Z"/><path class="cls-30" d="M154.65,388.61c-.31,5.42,4.82,3.7,9,4-.32,1.32.38,5.6,0,6-.32.33-8.41-1.02-9.04-1.46-1.42-.99-1.72-7.17.04-8.54Z"/><path class="cls-16" d="M82.65,196.61c-.05.15,1.08,1.28.01,3.24-.21.4-5.91,6.12-6.33,6.44-.93.69-5.94.61-5.68,4.32-1.46-.34-5.19-.08-7,0-.66.03-1.35-.08-2,0v-1c1.93-1.86,4.93-2.86,9-3,1-3.72,8.04-10.66,12-10Z"/><path class="cls-106" d="M273.65,389.61c.14,1.29,1.6,2.49,1.02,5.48-.8,4.1-6.88,1.89-10.01,3.51-.29-1.81.38-4.38,0-6,3.92-.64,10.31,2.19,9-3Z"/><path class="cls-38" d="M170.65,378.61c-5.21.08-13.36-.81-18,0v-1c5.77-1.83,12.42-1.17,18,1Z"/><path class="cls-77" d="M390.65,217.61c-3.89,1.02-4.39,1.41-7,4-4.92-3.6-6.45,4.01-5,8-1.88,3.16-5.47-.17-9,2l-1.95-.23c-6.08-4.41-8.92-3.95-9.62,3.86,4.27.48,6.8,1.94,7.57,4.37-.86,2.16-1.5,2.9-2,4-.39.87-1.03,1.36-1.96,1.42-9.09-6.83-15.32,6.33-3.11,6.28l1.08,2.3c-.71,1.46-2.64,2.71-3,4l-2.26.95c-8.98-5.98-12.06,5.29-1.43,6.61l1.69,1.44c-.52,2.31-.93,3.04,1,5-9.88-4.18-20.09-7.71-30-12-4.79-2.07-15.49-3.4-13.97-10.42l22.96-52.13c2.05-1.29,6.91.9,9.27,1.78,13.28,4.97,27.64,13.85,41.04,17.97,1.95.6,3.6,1.15,5.69.8Z"/><path class="cls-10" d="M405.65,250.61c-4.66,4.5-11.15,8.45-17.84,6.07-4.81-1.72-7.31-6.63-1.16-5.07,2.24.42,5.31.41,4-2.5-.76-1.67-9.21-3.67-9.83-4.66-1.19-1.91.19-10.79,2.09-12.57,4.84-4.55,13.54,3.72,14.75,2.72-.98-1.69-1.67-4.13-2.97-5.52-1.52-1.61-7.7-2.67-6.02-4.46.4-.43,8.29-3.02,9.53-3.06,12.87-.44,13.55,14.41,10.52,23.59-.84,2.55-2.01,3.55-3.05,5.45Z"/><path class="cls-21" d="M372.53,246.74c.44.52,1.79,12.22,1.47,13.64-.56,2.55-4.66,13.01-6.85,13.26-3.98.47-9.37-2.54-8.27-7.28.38-1.65,7.56-19.01,8.29-19.79,1.06-1.13,4.89-.39,5.36.17Z"/><path class="cls-49" d="M386.65,251.61c-3.85-.53-.78,2.05.05,2.45,7.93,3.8,11.57-1.47,18.95-3.45-7.97,14.51-24.08,18.34-26.99-.99,2.89-.82,5.92,1.6,7.99,1.99Z"/><path class="cls-33" d="M363.65,243.61c-1.41,3.14-2.19,6.3-4,10-4.84-1.27-11.31-1.04-9.53-7.02,2.67-8.98,7.12-5.17,13.53-2.98Z"/><path class="cls-65" d="M369.65,231.61c-.13,1.02-3.29,6.2-4,8l-9.99-3.02c-.76-.83,2.73-9.82,3.96-10.55,2.57.63,10.45,2.26,10.04,5.57Z"/><path class="cls-15" d="M356.65,257.61c-.48,1.73-1.41,6.4-2,9-3.71,2.19-7.25-2.71-10.93-3.1,1.01-9.73,4.8-11.15,12.93-5.9Z"/><path class="cls-25" d="M383.65,221.61c-3.03,3.01-3.1,4.8-5,8-7.22-1.15,2.09-18.03,5-8Z"/><path class="cls-47" d="M372.64,243.62c-.13.13-3.25.99-2.97-1.47.29-2.61,2.81-8.78,4.97-10.54-.35,1.67-1.57,11.57-2,12Z"/><path class="cls-108" d="M71.65,91.61v80c-2.42.07-3.97-2.72-6.52-2.61-2.78.12-4.96,4.87-6.84,4.53-.88-.16-2.43-2.51-3.89-3.17-6.69-2.99-7.76,3.59-10.11,3.17-1.06-.19-4.47-4.61-7.15-4.57-2.23.03-6.11,4.84-7.85,4.54s-3.66-4.92-6.13-4.91c-2.1,0-3.98,3.47-6.52,3.01v-79c2.45-.12,3.83,2.3,6.46,2.03s3.67-4.05,6.02-4.04,4.59,4.19,7.93,4.03,5.09-4.06,7.09-4.05c2.14,0,4.12,4.48,7.97,4.07,2.39-.25,4.13-4.09,7.06-4.01s5.72,8.19,12.47.98Z"/><path class="cls-42" d="M86.65,181.61c.48,7.18-2.04,8.92-4,15-3.95,3.32-7.39,7.52-12,10-15.35,4.17-33.79-7.45-37-23,.16-1.89.77-2.16,1-3,1.8-3.1,4.14-4.76,7-2,.77-.11,2.26,1.07,4.03.57,2.4-.67,4.66-4.82,6.34-4.51.96.18,2.86,3.11,4.63,3.93l1.97,1.95c-7.92,21.07,17.2,15.14,14.91-1.41l2.12-1.54c.61-5.36,1.21-10.61,1.5-15.99,5.32,4.85,9.03,12.86,9.5,19.99Z"/><path class="cls-60" d="M75.65,177.61c-.34,3.01.1,5.35-.84,8.67-2.83,10.01-17.6,14.94-19.98,2.58-.81-4.22,2.29-6.26,1.81-10.25,5.25,2.45,6.48-4.03,9.5-4.04,2.67,0,4.91,6.8,9.5,3.04Z"/><path class="cls-55" d="M33.65,183.61c2.43,2.67,3.93,6.94,6.01,9.5,6.69,8.21,20.45,14.04,30.99,13.5-2.28,1.23-6.46,3-9,3-12.52,0-29.13-12.42-28-26Z"/><path class="cls-18" d="M41.65,178.61c-2.75.38-4.46,1.24-7,2,1.68-6.16,2.35-8.73,7-2Z"/><path class="cls-108" d="M140.65,180.61c7.78-24.56,27.7-21.24,45.57-30.98,4.71-2.57,7.09-9.15,12.1-12.85,7.13-5.26,15.04-6.21,23.55-3.9,12.12,3.3,13.27,14.51,23.39,18.61,17.43,7.05,33.38,5.94,41.38,27.12,1.74,6.29-4.15,8.7-8.98,11.52-35.06,20.41-89.17,21.44-124.69,1.65-3.82-2.13-12.23-6.53-12.33-11.17Z"/><path class="cls-61" d="M224.65,54.61c-1.61,8.28-2.11,34.02-7.95,39.54s-8.38-5.41-9.39-9.7c-2.21-9.41-3-20.17-3.66-29.84,8.69-.78,12.33-.71,21,0Z"/><path class="cls-100" d="M171.36,112.83c22.03-5.09,19.49,37.52.27,32.32-12.85-3.48-11.78-29.65-.27-32.32Z"/><path class="cls-22" d="M249.39,112.87c20.03-5.2,21.11,31.13,5.67,32.74-16.88,1.77-17.52-29.67-5.67-32.74Z"/><path class="cls-4" d="M152.65,54.61c1.19,2.81,4.33,7.52,4.02,10.48-.2,1.85-2.8,3.73-4.02,5.52-2.71.91-5.87,3.59-8.01,5.49-3.88,3.43-10.57,12.83-13.53,14.63-1.49.91-1.24-.1-1.46-.12-1.8-3.09,2.07-13.19,6-13l.26-3.07c4.15-4.13,8.25-8.32,12.33-12.55-6.46-8.95-13.08-17.71-19.86-26.28l.27-1.1c2.29-2.09,7.56,2.49,9.47,4.03,5.54,4.46,9.85,10.69,14.53,15.97Z"/><path class="cls-23" d="M298.65,34.61c-6.55,9.55-13.11,19.16-19.69,28.84,3.23,1.86,13.37,9.63,13.16,12.97-.03.41-.22.8-.47,1.2,3.49-.3,6.39,8.76,6,12-.26.35.55,2.07-.5,2-7.95-10.1-17.69-18.51-27.56-26.56,2.23-7.04,7.43-12.2,11.05-18.44,2.27-1.97,5.63-4.28,7-7,3.44-1.98,6.65-5.74,11-5Z"/><path class="cls-93" d="M194.65,55.61c3.01-.56,1.94,1.53,2,3.45.16,5.14.98,10.29,1.07,15.02.43,23.57-16.74-8.38-17.07-15.48,4.78-.99,9.06-2.2,14-3Z"/><path class="cls-28" d="M247.65,58.61c-2.25,3.62-9.9,24.69-14.38,23.94-5.74-.96-.51-23.08-1.62-27.94,5.53.77,10.64,2.84,16,4Z"/><path class="cls-32" d="M256.65,241.61c7.13,19.07,14.14,30.31,11.99,52.49-4.77,49.23-80.77,57.76-103,18.01-11.42-20.42-5.48-45.21,3-65.5,1.75-2.78,3.66-4.81,5.75-6.08,6.94,15.09,14.71,12.01,25.96,4.12,14.34-5.5,25.33-1.15,38.06,5.69,7.31,2.66,9.61.41,12.79-5.58,2.08-6.36,3.89-7.41,5.44-3.15Z"/><path class="cls-99" d="M256.65,241.61c-4.55-3.28-3.31,3.64-4.95,6.55-7.46,13.18-22.73-2.5-31.52-3.57-3.23-.4-11.7-.38-14.8.25-7.74,1.57-15.14,12.74-25.28,6.82-3.66-2.14-4.57-8.19-5.47-9.04-1.76-1.67-3.71,4.98-5.98,4,1.55-3.72,2.63-8.49,6-11,2.44,13.68,10.81,13.59,21.67,8.17,2.51-1.25,7.74-5.97,9.78-6.08,2.38-.13,5.78,2.08,9.02,1.95,2.43-.1,5.26-2.06,6.86-1.8,1.49.24,8.11,5.7,10.97,6.95,11.45,5.01,18.91,3.08,20.69-10.19,2.13,1.94,2.17,4.79,3,7Z"/><path class="cls-81" d="M128.65,210.61c2.96.87,8.73.77,12,1.01-.71,3.77-7.43,19.02-11.25,10.75-.86-1.86-1.28-10.03-.74-11.75Z"/><path class="cls-29" d="M117.65,205.61c-8.29,11.32-15.18,10.85-11-5,3.1,1.45,7.9,3.73,11,5Z"/><path class="cls-102" d="M180.65,215.61c6.7-2.19,13.7-.86,21,4,4.13,7.12-6.43,4.41-7,5-.25.26-.27,2.47.59,3.09,1.4,1.01,4.36.5,5.41.91.48,8.8-18.93,13.82-21,3-.37-4.35-.56-12.27,1-16Z"/><path class="cls-80" d="M226.65,219.61l9.65-4.06c6.04-2.46,9.83-1.44,11.35,3.06,1,4.18,1.39,7.49,1,12-1.71,12.05-19.4,6.78-22-1,.2-.49-.6-1.75.63-2.04,1.41-.33,5.99.44,6.38.04v-2.99c-4.4-.46-10.38.54-7.01-5Z"/><path class="cls-24" d="M211.38,218.81c11.58-2.52,11.11,12.44,7.28,14.3-11.45,5.57-16.79-12.24-7.28-14.3Z"/><path class="cls-95" d="M226.65,229.61l6.51,3.99c6.22,3.22,11.73,3.45,15.49-2.99-.27,3.08-1.47,11.75-5.45,11.95-2.35.12-14.34-6.02-16.07-7.91-2.43-2.65-1.46-2.6-.48-5.04Z"/><path class="cls-39" d="M179.65,231.61c4.44,7.07,18.29,4.21,21-3,7.79,3.02-14.01,16.64-18.53,12.02-1.71-1.75-2.26-6.54-2.47-9.02Z"/><path class="cls-85" d="M201.65,219.61c.25,3.46-.59,1.44-2.29.79-3.1-1.18-9.69-4.23-12.47-4.62-2.41-.33-4.71,1.25-6.23-.18,3.2-7.62,18.26-.73,21,4Z"/><path class="cls-34" d="M247.65,218.61l-1,.49c1.19-3.51-3.44-2.82-6.51-2.5s-6.3,1.78-9.25,2.75c-1.14.38-3.57,2.05-4.24.25,2.43-3.99,14.74-9.07,19.02-6.51,1.76,1.05,1.59,3.86,1.98,5.51Z"/><path class="cls-52" d="M135.65,77.61c-2.45,3.7-3.85,9.06-6,13-4.87-.39-3.98-2.21-5.34-5.67-6.18-15.76-5.39-31.36,3.34-46.33,4.42-.61,7.26,6.31,8.12,10.35.8,9.27,1.22,19.75-.12,28.65Z"/><path class="cls-59" d="M128.65,34.61l12.97,14.53c1.6,2.04,8.73,11.52,8.89,13.15s-12.56,11.86-14.86,15.33c-4.36-12.59,3.87-28.62-8-39,.39-.67-.77-2.39,1-4Z"/><path class="cls-14" d="M299.65,35.61c4.7,2.05,1.9,1.89,3.06,4.2.5.99,1.75.85,1.91,1.5.55,2.3-.49,5.32.05,7.62.18.75,1.77.61,1.96,1.37,1.63,6.82-.26,22.04-1.93,28.87-.65,2.65-.15,6.38-3.07,8.9-.97.84-3.52.93-3.97,1.54-3.17-2.71-4.08-9.1-6-12,.25-7.73.3-15.67.16-23.81-.06-6.98,1.89-14.35,7.84-18.19Z"/><path class="cls-40" d="M299.65,35.61c-9.03,11.17-4.55,24.98-5.95,37.55-.21,1.91-.9,3.02-2.05,4.45-.52-.79-6.82-7.41-7.98-8.52-1.81-1.73-7.06-3.75-6.9-5.79,5.4-10.92,13.93-19.69,21.88-28.69.34.06.69.86,1,1Z"/><path class="cls-66" d="M347.32,168.76c1.66-.56,3.72-.22,5.37.33l50.48,22.51c5.56,1.09-2.61,19.64-3.98,21.04-1.62,1.66-4.54,1.16-6.55.48l-52.54-22.45c-4.32-2.24,5.94-21.48,7.22-21.91Z"/><path class="cls-98" d="M339.52,260.49c-1.58,1-22.48-7.07-24.43-8.84-2.56-2.33,1.64-9.48,3.21-9.94s21.85,7.8,23.36,9.4c1.78,1.87-1.51,8.98-2.14,9.38Z"/><path class="cls-88" d="M323.77,227.74c1.57-.99,9.7,2.61,10.45,3.84.59.97-2.64,8.49-4.22,8.94-1.35.39-8.79-2.11-9.27-3.54s2.54-8.91,3.04-9.24Z"/><path class="cls-13" d="M348.58,237.69c-2.16,12.11-4.45,10.36-13.92,5.88,2.76-11.68,4.12-10.49,13.92-5.88Z"/><path class="cls-36" d="M372.49,224.44c-2.08,1.28-9.16-.27-10.39-2.84-.87-1.82,1.68-8.19,2.73-8.81,1.65-.97,9.59,2.18,10.35,3.78.39.82-2.34,7.65-2.69,7.87Z"/><path class="cls-6" d="M351.53,232.49c-1.3.83-10.53-1.98-10.85-3.44.77-2.06,3.22-8.18,4.94-9,.6-.29,8.66,3.15,8.97,4.18.28.9-2.7,8.02-3.07,8.26Z"/><path class="cls-91" d="M360.65,208.62c.7.8-2.46,8.73-3.98,9.51-3.81,1.96-9.28-1.42-8.81-5.77,1.15-10.63,6.27-4.5,12.8-3.74Z"/><path class="cls-62" d="M340.65,217.63c-3.97,9.92-3.83,10.63-13.92,5.88,1.67-12.22,4.76-10.16,13.92-5.88Z"/><path class="cls-97" d="M342.47,212.43c-1.44.85-9.35-2.4-9.7-2.94-.93-1.47,1.51-7.56,2.86-8.4,3.03-1.87,10.89,1.08,9.86,5.79-.13.59-2.76,5.39-3.03,5.55Z"/><path class="cls-87" d="M64.65,107.61c.27,2.4-.02,3.55-2.5,4-5.22-.69-36.41,1.31-38.06-.94-.72-.98-.42-1.99-.44-3.06h41Z"/><path class="cls-73" d="M47.34,151.85c1.58-.31,3.02,1.72,4.81,1.72,3.13,0,2.67-.53,7.2-.15,2.47.21,5.68-2.49,6.3,1.67-3.44,4.46-7.31.87-9.5.86-1.26,0-2.77,1.93-4.94,1.68-1.41-.16-2.41-1.73-3.25-1.87-1.29-.21-2.26,1.99-4.56,1.71-3.15-.38-6.25-4.03-.52-4.56,2.89-.27,2.86-.77,4.47-1.08Z"/><path class="cls-82" d="M44.65,128.61c.14.14.2,4,0,4h-19.5c-1.72,0-1.72-4,0-4,2.7,0,18.82-.7,19.5,0Z"/><path class="cls-71" d="M23.65,122.61v-3c5.66,1.56,19.48-2.73,23.55-.05,1.84,1.21,1.03,3.05-.05,3.05h-23.5Z"/><path class="cls-101" d="M25.15,141.61c-3.49-1-1.26-3.7,2.95-4.05,3.53-.29,14.03-1.21,12.55,4.05-4.16-.75-11.92,1.03-15.5,0Z"/><path class="cls-31" d="M56.65,128.62c.32-.33,8.67-.77,7.99,2.48-.77,3.66-11.21.76-7.99-2.48Z"/><rect class="cls-2" x="56.64" y="138.62" width="8.01" height="2.99"/><rect class="cls-45" x="56.64" y="119.62" width="8.01" height="2.99"/><path class="cls-9" d="M42.32,182.77c8.63-3.05,10.92,10.61,1.05,7.64-3.75-1.13-4.8-6.31-1.05-7.64Z"/><path class="cls-56" d="M216.67,157.66c-.44.57,1.77,5.95,2.54,6.9,3.54,4.34,11.3,5.09,15.82,1.93,1.39-.97,9.68-14.95,7.56-3.44-1.54,8.33-7.87,7.92-10.81,12.19-2.73,3.95-2.83,9.15-7.58,13.42-7.23,6.51-16.62,4.59-22.52-2.57-3.04-3.7-3.65-8.02-6-11-2.19-2.79-6.87-4.44-8.9-8.1-1.05-1.9-3.53-9.3.36-8.37,4.22,7.58,11.93,13.9,20.02,7.01,11.07-9.43-7.4-9.87-6.53-18.47s35.11-9.21,23.88,5.81c-2.05,2.75-7.56,4.33-7.84,4.7Z"/><path class="cls-72" d="M174.9,119.86c6.55-6.64,11.74,11.66,1.46,8.57-3.32-1-3.51-6.49-1.46-8.57Z"/><path class="cls-70" d="M248.36,118.75c6.2-1.72,7.18,8.45,2.58,9.72-6.2,1.72-7.18-8.45-2.58-9.72Z"/><path class="cls-74" d="M352.65,173.61c1.27,1.17,1.56,1.66.86,1.47l45.95,20.16c2.18,1.05,1.86,2.34,1.19,4.38-.65,1.78-4.12,10.77-5.48,10.87l-50.91-22c-1.01-.5-1.52-.97-1.45-2.17.09-1.61,5.32-13.24,6.51-13.61,1.34-.5,2.45.73,3.33.91Z"/><path class="cls-12" d="M400.65,199.61c.08-2.24-1.32-2.68-2.94-3.56-13.03-7.06-31.07-11.65-43.78-19.22-1.63-.97-2.97-1.21-1.28-3.22,14.75,3.05,32.37,15.68,47.36,20.15,4.12,2.54,1.66,3.08.64,5.85Z"/><path class="cls-69" d="M211.39,177.84c2.72-.43,13.01.64,12.21,4.2-.15.67-3.74,4.1-4.66,4.36-11.26,3.31-21.36-6.38-7.55-8.56Z"/><path class="cls-104" d="M218.64,144.62c.67,4.8-10.97,3.34-10.97,1.49,0-2.31,9.14-1.35,10.97-1.49Z"/></svg>